<svg width="1067pt" height="1067pt" viewBox="0 0 1067 1067" version="1.1" xmlns="http://www.w3.org/2000/svg">
    <path d=" M 66.29 101.27 C 79.22 91.18 95.58 85.66 111.97 85.74 C 318.29 85.74 524.62 85.74 730.95 85.74 C 746.69 85.58 762.43 90.55 775.17 99.80 C 794.28 113.42 806.31 136.47 806.17 159.98 C 806.09 284.83 806.13 409.68 806.14 534.54 C 836.34 504.28 866.72 474.19 896.90 443.90 C 906.03 434.54 917.54 427.52 930.08 423.79 C 947.91 418.42 967.69 419.74 984.62 427.54 C 1000.80 434.89 1014.24 448.03 1022.00 464.01 C 1028.78 477.85 1031.19 493.73 1029.02 508.97 C 1026.75 525.25 1019.09 540.76 1007.44 552.38 C 940.37 619.66 873.26 686.88 806.12 754.08 C 806.13 813.72 806.12 873.36 806.13 933.01 C 805.86 950.38 799.04 967.50 787.53 980.49 C 774.79 995.05 756.21 1004.30 736.89 1005.57 C 727.59 1005.94 718.28 1005.68 708.98 1005.75 C 511.31 1005.76 313.63 1005.77 115.96 1005.75 C 108.89 1005.90 101.78 1005.48 94.89 1003.83 C 76.00 999.52 59.09 987.41 48.83 971.00 C 41.10 958.85 37.22 944.42 37.39 930.06 C 37.37 711.70 37.38 493.35 37.38 275.00 C 36.96 268.68 41.70 262.51 48.04 261.69 C 55.28 260.30 62.80 266.53 62.50 273.94 C 62.51 490.30 62.50 706.65 62.50 923.01 C 62.48 930.04 62.27 937.22 64.23 944.06 C 68.55 960.77 82.34 974.57 99.03 978.94 C 106.17 981.02 113.65 980.63 121.00 980.61 C 323.65 980.63 526.31 980.59 728.97 980.64 C 735.63 980.82 742.36 979.94 748.62 977.59 C 767.43 970.92 780.97 951.96 781.06 931.98 C 781.19 881.06 781.10 830.14 781.11 779.22 C 759.26 800.97 737.52 822.84 715.77 844.69 C 713.92 846.66 711.71 848.31 709.12 849.16 C 662.67 866.06 616.24 882.99 569.80 899.91 C 566.04 901.25 562.14 903.20 558.04 902.32 C 552.97 901.45 548.76 897.16 547.98 892.08 C 547.31 888.91 548.45 885.79 549.55 882.87 C 556.23 864.69 562.80 846.46 569.48 828.28 C 508.31 828.19 447.14 828.31 385.97 828.22 C 379.52 828.20 373.87 822.40 373.90 815.98 C 373.58 809.33 379.36 803.13 386.04 803.15 C 450.28 803.01 514.52 803.29 578.75 803.01 C 586.12 782.34 593.76 761.76 601.23 741.12 C 602.26 737.57 605.14 735.13 607.67 732.63 C 665.36 674.93 723.25 617.40 780.89 559.66 C 781.45 548.82 780.96 537.89 781.13 527.02 C 781.10 404.70 781.17 282.37 781.08 160.05 C 781.05 144.54 773.21 129.32 760.59 120.31 C 752.36 114.28 742.20 110.95 731.99 110.87 C 525.02 110.89 318.04 110.87 111.06 110.88 C 96.80 111.01 82.83 117.81 73.82 128.84 C 66.83 137.25 62.80 148.05 62.56 158.99 C 62.42 168.34 62.54 177.70 62.51 187.06 C 62.56 193.26 57.17 198.87 50.98 199.13 C 46.03 199.63 40.95 196.82 38.79 192.33 C 36.52 188.24 37.46 183.44 37.29 178.99 C 37.54 167.30 36.56 155.42 39.20 143.92 C 42.87 127.11 52.66 111.75 66.29 101.27 M 915.75 460.68 C 904.31 471.90 893.03 483.30 881.70 494.64 C 906.36 519.29 931.02 543.96 955.69 568.62 C 966.83 557.48 977.98 546.35 989.11 535.19 C 996.92 527.37 1002.24 517.07 1003.85 506.12 C 1006.22 491.49 1001.86 475.97 992.31 464.65 C 983.59 454.14 970.63 447.30 957.03 446.09 C 942.02 444.61 926.45 450.03 915.75 460.68 M 631.07 744.74 C 640.61 754.32 650.18 763.87 659.74 773.43 C 737.28 695.92 814.80 618.40 892.31 540.86 C 882.82 531.40 873.36 521.91 863.88 512.45 C 786.22 589.82 708.72 667.36 631.07 744.74 M 677.57 791.25 C 686.86 800.59 696.23 809.86 705.50 819.23 C 783.00 741.67 860.48 664.08 937.87 586.40 C 928.60 577.19 919.38 567.93 910.14 558.69 C 832.60 636.19 755.09 713.72 677.57 791.25 M 618.32 767.62 C 612.75 783.00 607.09 798.36 601.54 813.76 C 613.26 825.40 624.90 837.13 636.61 848.79 C 651.95 843.16 667.31 837.61 682.65 831.98 C 661.23 810.50 639.74 789.09 618.32 767.62 M 581.43 868.87 C 591.06 865.40 600.66 861.83 610.30 858.39 C 604.49 851.94 598.08 846.05 592.02 839.85 C 588.47 849.52 584.96 859.19 581.43 868.87 Z" fill="#2677eb"/>
    <path d=" M 161.57 238.59 C 163.84 233.42 169.39 230.06 175.01 230.26 C 211.36 230.25 247.70 230.24 284.05 230.26 C 289.39 229.97 294.71 233.24 296.58 238.31 C 299.73 245.68 294.06 255.04 285.98 255.33 C 252.49 255.45 218.99 255.34 185.50 255.38 C 185.45 292.14 185.61 328.89 185.42 365.65 C 222.19 365.88 258.97 365.68 295.75 365.75 C 296.13 359.96 294.37 353.31 298.29 348.37 C 302.10 343.12 310.17 341.87 315.43 345.65 C 319.12 348.10 321.09 352.59 320.88 356.97 C 320.81 364.35 321.00 371.73 320.79 379.11 C 320.55 385.60 314.55 391.05 308.09 390.84 C 265.06 390.92 222.03 390.84 179.00 390.89 C 175.72 390.83 172.30 391.16 169.17 389.96 C 164.27 388.19 160.19 383.43 160.37 378.04 C 160.38 335.02 160.39 292.00 160.37 248.97 C 160.42 245.50 159.96 241.81 161.57 238.59 Z" fill="#2677eb"/>
    <path d=" M 311.47 268.62 C 315.53 264.91 322.01 264.28 326.65 267.27 C 331.77 270.34 333.94 277.27 331.61 282.75 C 330.31 286.15 327.22 288.29 324.55 290.55 C 306.20 305.90 287.88 321.29 269.54 336.66 C 264.89 340.81 257.18 340.72 252.72 336.34 C 244.30 328.07 236.01 319.67 227.66 311.33 C 223.77 307.68 222.57 301.58 224.87 296.76 C 227.33 291.19 234.18 288.17 239.97 290.08 C 243.34 290.95 245.66 293.71 248.02 296.07 C 252.68 300.75 257.35 305.42 262.03 310.08 C 278.52 296.28 294.99 282.44 311.47 268.62 Z" fill="#2677eb"/>
    <path d=" M 382.32 268.49 C 384.13 267.86 386.06 267.77 387.96 267.74 C 449.29 267.77 510.61 267.73 571.94 267.75 C 578.47 267.29 584.77 272.45 585.30 279.03 C 586.25 286.05 580.20 293.08 573.06 292.87 C 511.00 292.89 448.95 292.85 386.90 292.89 C 381.03 293.26 375.36 288.89 374.22 283.13 C 372.70 277.11 376.42 270.40 382.32 268.49 Z" fill="#2677eb"/>
    <path d=" M 383.46 328.56 C 394.58 327.84 405.79 328.46 416.95 328.25 C 501.00 328.25 585.05 328.25 669.10 328.25 C 676.24 327.96 682.43 334.92 681.49 341.98 C 681.07 348.69 674.58 353.91 667.96 353.38 C 574.30 353.37 480.63 353.39 386.97 353.37 C 380.92 353.66 375.12 349.11 374.13 343.12 C 372.75 336.79 377.13 329.94 383.46 328.56 Z" fill="#2677eb"/>
    <path d=" M 160.39 478.95 C 160.41 472.03 167.69 467.53 174.06 467.76 C 211.04 467.75 248.03 467.73 285.02 467.77 C 291.56 467.66 297.40 473.44 297.41 479.98 C 297.79 486.72 291.86 493.00 285.08 492.86 C 251.89 492.90 218.70 492.86 185.51 492.88 C 185.50 528.96 185.49 565.04 185.51 601.12 C 222.26 601.12 259.00 601.13 295.75 601.12 C 296.10 595.27 294.35 588.44 298.61 583.61 C 302.71 578.41 311.02 577.58 316.11 581.79 C 319.18 584.18 320.94 588.06 320.86 591.95 C 320.83 599.61 321.00 607.29 320.78 614.95 C 320.42 621.35 314.37 626.51 308.03 626.24 C 265.02 626.28 222.01 626.22 179.00 626.26 C 175.37 626.22 171.52 626.56 168.15 624.96 C 163.87 623.11 160.34 618.88 160.39 614.06 C 160.37 569.03 160.37 523.99 160.39 478.95 Z" fill="#2677eb"/>
    <path d=" M 311.94 503.88 C 315.90 500.51 321.97 500.05 326.41 502.74 C 333.70 506.71 334.66 518.04 328.11 523.15 C 308.57 539.58 288.99 555.97 269.42 572.37 C 264.66 576.58 256.77 576.24 252.37 571.65 C 243.99 563.33 235.65 554.98 227.32 546.61 C 223.24 542.72 222.28 536.05 225.21 531.21 C 228.72 524.61 238.52 522.89 244.08 527.87 C 250.18 533.70 256.02 539.81 262.05 545.72 C 278.67 531.77 295.30 517.81 311.94 503.88 Z" fill="#2677eb"/>
    <path d=" M 386.15 503.18 C 448.10 503.07 510.05 503.14 572.00 503.14 C 577.64 502.82 583.24 506.55 584.81 512.03 C 586.73 517.83 583.69 524.67 578.12 527.15 C 574.97 528.69 571.35 528.18 567.97 528.26 C 507.33 528.23 446.70 528.27 386.07 528.24 C 382.17 528.26 378.38 526.18 376.19 522.98 C 373.12 518.73 373.17 512.58 376.28 508.37 C 378.50 505.19 382.29 503.27 386.15 503.18 Z" fill="#2677eb"/>
    <path d=" M 381.41 564.62 C 384.74 563.16 388.45 563.70 391.98 563.62 C 484.33 563.63 576.67 563.62 669.02 563.62 C 676.03 563.33 682.22 569.98 681.52 576.95 C 681.34 583.80 674.77 589.27 668.04 588.75 C 574.34 588.74 480.64 588.77 386.94 588.74 C 381.01 589.00 375.31 584.65 374.18 578.80 C 372.86 573.14 376.04 566.85 381.41 564.62 Z" fill="#2677eb"/>
    <path d=" M 171.30 705.34 C 215.87 705.11 260.45 705.34 305.02 705.23 C 308.20 705.20 311.59 705.07 314.43 706.79 C 318.77 709.10 321.18 714.09 320.88 718.93 C 320.85 763.63 320.90 808.32 320.86 853.01 C 321.15 859.93 314.88 866.12 307.96 865.75 C 262.95 865.74 217.94 865.76 172.93 865.74 C 166.50 865.97 160.50 860.42 160.40 853.96 C 160.34 808.64 160.41 763.32 160.37 718.01 C 160.03 711.79 165.11 705.92 171.30 705.34 M 185.49 730.39 C 185.51 767.13 185.50 803.88 185.50 840.62 C 222.25 840.63 259.00 840.62 295.74 840.63 C 295.75 803.88 295.75 767.12 295.74 730.37 C 258.99 730.39 222.24 730.36 185.49 730.39 Z" fill="#2677eb"/>
    <path d=" M 383.16 743.14 C 386.04 742.50 389.02 742.78 391.95 742.74 C 452.30 742.76 512.64 742.73 572.99 742.76 C 578.85 742.62 584.23 747.28 585.16 753.03 C 586.31 758.58 583.08 764.55 577.91 766.79 C 574.48 768.33 570.62 767.78 566.98 767.88 C 507.32 767.87 447.65 767.86 387.99 767.89 C 382.78 768.32 377.40 765.61 375.16 760.80 C 371.63 754.05 375.75 744.91 383.16 743.14 Z" fill="#2677eb"/>
</svg>