<svg width="1017pt" height="970pt" viewBox="0 0 1017 970" version="1.1" xmlns="http://www.w3.org/2000/svg">
    <path d=" M 262.39 0.00 L 502.51 0.00 C 517.17 1.32 531.30 7.85 541.70 18.28 C 553.57 29.90 560.55 46.35 560.58 62.96 C 560.58 80.13 560.58 97.31 560.57 114.48 C 616.05 114.51 671.52 114.48 727.00 114.49 C 745.64 114.39 763.16 130.21 764.00 148.99 C 764.00 246.00 764.01 343.02 763.99 440.03 C 763.23 454.49 752.57 467.48 739.08 472.27 C 738.73 479.11 738.81 485.97 739.04 492.81 C 757.23 499.76 775.46 506.62 793.61 513.66 C 798.90 515.52 800.67 522.94 797.12 527.16 C 794.61 530.46 789.85 531.40 786.16 529.61 C 765.05 521.50 743.88 513.55 722.79 505.38 C 640.81 536.55 558.88 567.86 476.92 599.09 C 471.88 601.18 466.58 602.66 461.72 605.17 C 548.81 638.16 635.74 671.56 722.82 704.59 C 764.03 688.71 805.36 673.15 846.59 657.31 C 805.81 638.71 764.94 620.31 724.12 601.80 C 720.71 600.18 716.47 599.05 714.76 595.33 C 712.44 590.99 714.74 585.18 719.23 583.37 C 721.78 582.16 724.71 582.64 727.16 583.84 C 774.74 605.40 822.32 626.95 869.91 648.47 C 907.93 633.95 945.94 619.43 983.98 604.99 C 929.14 584.14 874.33 563.20 819.50 542.31 C 814.97 540.89 812.20 535.56 813.90 531.08 C 815.35 526.52 820.82 523.88 825.29 525.71 C 887.16 549.23 948.99 572.88 1010.86 596.42 C 1013.60 597.25 1015.70 599.31 1017.00 601.83 L 1017.00 647.92 C 1015.88 650.48 1013.83 652.55 1011.15 653.40 C 981.58 664.69 951.99 675.92 922.44 687.24 C 922.45 733.14 922.45 779.04 922.44 824.94 C 922.80 829.49 918.87 832.36 915.64 834.75 C 903.81 843.88 891.37 852.22 878.37 859.59 C 878.36 874.42 878.39 889.26 878.36 904.09 C 887.86 906.90 896.15 913.79 900.08 922.96 C 906.77 937.44 901.08 956.12 887.46 964.42 C 874.01 973.39 854.36 970.38 844.17 957.85 C 834.30 946.60 833.64 928.60 842.70 916.67 C 847.09 910.58 853.62 906.30 860.76 904.11 C 860.71 892.38 860.77 880.65 860.73 868.92 C 825.51 886.09 787.09 896.72 748.02 899.87 C 668.79 906.56 587.41 881.53 525.66 831.45 C 522.89 829.14 522.71 825.31 522.83 821.99 C 522.91 798.96 522.82 775.93 522.87 752.91 C 522.55 747.95 527.02 743.40 531.99 743.70 C 536.77 743.79 540.84 748.25 540.46 753.04 C 540.44 775.60 540.48 798.15 540.43 820.71 C 588.40 858.26 648.24 880.23 709.06 883.03 C 761.46 885.43 814.57 873.70 860.86 848.98 C 860.57 802.90 860.83 756.82 860.74 710.74 C 815.89 727.86 771.03 744.94 726.18 762.05 C 723.87 762.98 721.29 762.94 719.01 762.00 C 659.50 739.30 599.98 716.61 540.47 693.92 C 540.38 701.94 540.56 709.96 540.41 717.98 C 540.39 722.77 535.73 726.76 531.02 726.30 C 526.38 726.05 522.57 721.70 522.86 717.08 C 522.83 707.32 522.87 697.56 522.86 687.80 C 369.24 687.73 215.60 687.82 61.98 687.75 C 42.98 687.46 26.17 670.84 25.49 651.88 C 25.21 592.00 25.63 532.10 25.28 472.22 C 11.57 467.57 1.71 454.47 0.00 440.23 L 0.00 148.86 C 1.05 140.77 4.32 132.90 9.93 126.91 C 16.75 119.36 26.71 114.68 36.91 114.50 C 92.54 114.46 148.17 114.54 203.80 114.46 C 203.71 97.32 203.80 80.18 203.76 63.04 C 203.84 46.97 210.29 31.04 221.46 19.48 C 232.11 8.27 246.96 1.15 262.39 0.00 M 231.45 51.05 C 228.71 58.39 229.39 66.33 229.31 74.00 C 229.25 87.46 229.42 100.93 229.22 114.39 C 237.75 114.53 246.29 114.59 254.81 114.36 C 254.55 97.57 254.78 80.78 254.70 63.99 C 254.50 58.76 257.76 53.61 262.65 51.69 C 265.61 50.39 268.89 50.77 272.03 50.73 C 345.34 50.74 418.65 50.74 491.96 50.73 C 495.18 50.80 498.55 50.34 501.60 51.64 C 506.17 53.47 509.58 58.07 509.61 63.05 C 509.67 80.19 509.63 97.33 509.63 114.48 C 518.06 114.49 526.50 114.52 534.94 114.46 C 534.82 96.94 534.94 79.42 534.88 61.89 C 534.64 46.08 523.05 31.45 507.96 27.01 C 501.21 24.77 494.05 25.45 487.08 25.35 C 413.73 25.36 340.37 25.33 267.02 25.37 C 251.30 25.33 236.41 36.17 231.45 51.05 M 280.32 76.38 C 280.39 89.09 280.27 101.81 280.39 114.53 C 348.30 114.41 416.21 114.57 484.11 114.45 C 483.99 101.74 484.35 89.01 483.94 76.31 C 416.07 76.45 348.19 76.32 280.32 76.38 M 34.06 140.73 C 28.93 142.40 25.32 147.65 25.51 153.04 C 25.50 247.35 25.50 341.66 25.51 435.98 C 25.23 442.41 30.51 448.39 36.92 448.94 C 135.02 462.45 233.11 476.00 331.20 489.52 C 331.24 482.67 331.12 475.83 331.26 468.99 C 331.82 455.12 340.82 442.12 353.43 436.42 C 361.36 432.50 370.38 432.77 378.99 432.89 C 387.66 433.17 396.52 432.02 405.01 434.27 C 418.45 437.79 429.37 449.22 432.28 462.81 C 434.01 471.58 433.00 480.58 433.16 489.45 C 531.13 476.11 629.05 462.44 727.01 449.02 C 733.53 448.60 739.17 442.63 738.82 436.03 C 738.82 341.68 738.82 247.32 738.82 152.97 C 739.07 147.46 735.17 142.18 729.94 140.60 C 726.02 139.58 721.92 140.35 717.94 140.02 C 493.95 139.95 269.97 140.05 45.98 140.01 C 42.01 140.29 37.91 139.42 34.06 140.73 M 368.43 458.56 C 362.13 458.95 356.74 464.65 356.75 470.97 C 356.75 496.66 356.72 522.35 356.76 548.03 C 356.80 554.89 363.17 560.75 369.99 560.35 C 378.31 560.31 386.64 560.35 394.96 560.33 C 401.52 560.48 407.56 554.69 407.57 548.11 C 407.62 522.40 407.59 496.70 407.58 471.00 C 407.71 464.34 401.70 458.48 395.09 458.51 C 386.21 458.47 377.31 458.37 368.43 458.56 M 51.09 476.69 C 51.02 532.77 51.12 588.87 51.05 644.96 C 50.85 648.73 50.72 652.81 52.84 656.13 C 55.29 660.34 60.26 662.65 65.06 662.30 C 195.67 662.22 326.28 662.38 456.89 662.22 C 449.07 658.81 440.94 656.16 433.05 652.91 C 430.01 651.61 427.87 648.37 428.07 645.04 C 428.07 631.68 428.07 618.31 428.07 604.95 C 427.84 601.32 430.35 597.88 433.75 596.72 C 526.94 561.17 620.16 525.68 713.34 490.09 C 713.38 485.62 713.36 481.14 713.36 476.67 C 619.99 489.67 526.57 502.36 433.20 515.41 C 433.27 526.28 433.23 537.15 433.23 548.03 C 433.13 559.46 427.66 570.73 418.60 577.73 C 411.96 582.99 403.51 585.98 395.03 585.86 C 386.37 585.87 377.72 585.87 369.06 585.86 C 359.12 585.94 349.28 581.71 342.31 574.64 C 335.06 567.46 330.93 557.24 331.19 547.03 C 331.27 536.55 331.06 526.07 331.31 515.59 C 315.96 512.95 300.43 511.25 285.01 508.99 C 207.04 498.20 129.05 487.51 51.09 476.69 M 445.55 617.75 C 445.62 624.84 445.38 631.94 445.68 639.03 C 535.11 672.96 624.46 707.12 713.83 741.22 C 713.87 734.15 713.88 727.08 713.83 720.02 C 624.39 685.97 534.97 651.85 445.55 617.75 M 878.37 664.09 C 878.37 671.10 878.36 678.11 878.38 685.13 C 918.88 669.84 959.28 654.28 999.76 638.93 C 999.80 631.87 999.78 624.81 999.77 617.76 C 959.32 633.24 918.82 648.59 878.37 664.09 M 731.40 720.19 C 731.50 727.15 731.43 734.12 731.44 741.09 C 774.61 724.93 817.62 708.27 860.73 691.93 C 860.75 684.88 860.74 677.83 860.73 670.79 C 817.62 687.27 774.44 703.56 731.40 720.19 M 878.33 704.12 C 878.44 749.13 878.32 794.14 878.39 839.15 C 887.53 833.53 896.35 827.39 904.85 820.83 C 904.87 778.54 904.87 736.25 904.85 693.95 C 896.00 697.32 887.12 700.60 878.33 704.12 M 864.42 921.47 C 856.79 924.01 851.94 932.96 854.48 940.69 C 856.59 948.59 865.51 953.78 873.41 951.56 C 881.75 949.65 887.33 940.17 884.69 931.97 C 882.44 923.60 872.57 918.33 864.42 921.47 Z" fill="#2677eb"/>
</svg>
